<svg width="300" height="58" viewBox="0 0 300 58" fill="none" xmlns="http://www.w3.org/2000/svg">
<path d="M20.9395 32.9541V30.9541H19.3195L18.9831 32.5388L20.9395 32.9541ZM17.8594 47.4629L15.903 47.0476L15.3902 49.4629H17.8594V47.4629ZM33.1382 45.3149L31.9631 43.6965L31.9525 43.7043L33.1382 45.3149ZM34.1514 34.4941L32.8939 36.0494L32.9019 36.0559L32.91 36.0622L34.1514 34.4941ZM25.7217 10.2588V8.25879H24.0909L23.7626 9.85616L25.7217 10.2588ZM23.0063 23.4707L21.0473 23.0681L20.5535 25.4707H23.0063V23.4707ZM36.583 21.5254L37.6818 23.1965L37.6872 23.193L36.583 21.5254ZM13.0366 0.410645V-1.58936H11.4181L11.0806 -0.00643921L13.0366 0.410645ZM42.4595 0.775391L42.208 2.75951L42.2217 2.76126L42.2355 2.76281L42.4595 0.775391ZM47.0796 1.91016L46.2361 3.7236L46.2479 3.72907L46.2597 3.73438L47.0796 1.91016ZM52.6318 6.48975L50.9607 7.58856L50.9695 7.60185L50.9784 7.61499L52.6318 6.48975ZM39.501 27.8882L39.3221 25.8962L39.1315 29.8538L39.501 27.8882ZM47.8901 32.0625L46.4392 33.439L46.4481 33.4483L47.8901 32.0625ZM49.0249 47.5845L47.2482 46.6662L49.0249 47.5845ZM43.6753 53.7041L44.8222 55.3426L44.8336 55.3346L44.8449 55.3265L43.6753 53.7041ZM0.756836 58L-1.19919 57.5829L-1.71459 60H0.756836V58ZM18.9831 32.5388L15.903 47.0476L19.8158 47.8782L22.8959 33.3694L18.9831 32.5388ZM17.8594 49.4629H24.749V45.4629H17.8594V49.4629ZM24.749 49.4629C28.6173 49.4629 31.8997 48.71 34.3238 46.9256L31.9525 43.7043C30.486 44.7838 28.1757 45.4629 24.749 45.4629V49.4629ZM34.3132 46.9334C36.8598 45.0845 38.0967 42.3975 38.0967 39.1548H34.0967C34.0967 41.2616 33.3612 42.6815 31.9632 43.6965L34.3132 46.9334ZM38.0967 39.1548C38.0967 36.6359 37.2896 34.4277 35.3928 32.926L32.91 36.0622C33.6069 36.614 34.0967 37.5129 34.0967 39.1548H38.0967ZM35.4088 32.9389C33.6297 31.5005 31.1745 30.9541 28.3965 30.9541V34.9541C30.7519 34.9541 32.1333 35.4344 32.8939 36.0494L35.4088 32.9389ZM28.3965 30.9541H20.9395V34.9541H28.3965V30.9541ZM23.7626 9.85616L21.0473 23.0681L24.9654 23.8733L27.6807 10.6614L23.7626 9.85616ZM23.0063 25.4707H28.3154V21.4707H23.0063V25.4707ZM28.3154 25.4707C32.0626 25.4707 35.2582 24.7901 37.6818 23.1965L35.4842 19.8543C33.9632 20.8544 31.6471 21.4707 28.3154 21.4707V25.4707ZM37.6872 23.193C40.2164 21.5182 41.582 19.0969 41.582 16.0947H37.582C37.582 17.6856 36.9484 18.8848 35.4788 19.8578L37.6872 23.193ZM41.582 16.0947C41.582 13.7866 40.7479 11.7863 39.0111 10.3138L36.4244 13.3649C37.1733 13.9998 37.582 14.8364 37.582 16.0947H41.582ZM39.0111 10.3138C37.3034 8.86596 35.0902 8.25879 32.6113 8.25879V12.2588C34.4554 12.2588 35.6465 12.7053 36.4244 13.3649L39.0111 10.3138ZM32.6113 8.25879H25.7217V12.2588H32.6113V8.25879ZM13.0366 2.41064H34.7998V-1.58936H13.0366V2.41064ZM34.7998 2.41064C37.9502 2.41064 40.4091 2.53148 42.208 2.75951L42.711 -1.20873C40.6733 -1.46703 38.0257 -1.58936 34.7998 -1.58936V2.41064ZM42.2355 2.76281C44.0366 2.96575 45.3426 3.30801 46.2361 3.7236L47.923 0.096714C46.493 -0.56843 44.7189 -0.982679 42.6834 -1.21203L42.2355 2.76281ZM46.2597 3.73438C48.3592 4.67798 49.8967 5.97033 50.9607 7.58856L54.3029 5.39093C52.7732 3.0645 50.6092 1.30379 47.8995 0.0859299L46.2597 3.73438ZM50.9784 7.61499C52.0609 9.20557 52.6177 11.0368 52.6177 13.1768H56.6177C56.6177 10.2914 55.8506 7.66455 54.2853 5.3645L50.9784 7.61499ZM52.6177 13.1768C52.6177 16.5915 51.4372 19.4114 49.0431 21.759L51.8436 24.615C55.0153 21.505 56.6177 17.6513 56.6177 13.1768H52.6177ZM49.0431 21.759C46.6421 24.1133 43.4525 25.5252 39.3221 25.8962L39.6799 29.8802C44.5736 29.4406 48.6788 27.7184 51.8436 24.615L49.0431 21.759ZM39.1315 29.8538C42.4193 30.4718 44.7968 31.7078 46.4392 33.439L49.3411 30.686C46.9848 28.2024 43.7695 26.6555 39.8704 25.9226L39.1315 29.8538ZM46.4481 33.4483C48.0706 35.1366 48.8892 37.1849 48.8892 39.7222H52.8892C52.8892 36.2073 51.7084 33.1492 49.3322 30.6767L46.4481 33.4483ZM48.8892 39.7222C48.8892 42.2554 48.3372 44.5592 47.2482 46.6662L50.8016 48.5028C52.1983 45.8005 52.8892 42.8628 52.8892 39.7222H48.8892ZM47.2482 46.6662C46.158 48.7754 44.5896 50.5794 42.5057 52.0817L44.8449 55.3265C47.4081 53.4786 49.4061 51.2027 50.8016 48.5028L47.2482 46.6662ZM42.5284 52.0656C40.6003 53.4153 38.3153 54.4146 35.6416 55.0393L36.5517 58.9344C39.6599 58.2081 42.4274 57.019 44.8222 55.3426L42.5284 52.0656ZM35.6416 55.0393C32.9706 55.6633 29.1089 56 23.979 56V60C29.2241 60 33.4408 59.6612 36.5517 58.9344L35.6416 55.0393ZM23.979 56H0.756836V60H23.979V56ZM2.71286 58.4171L14.9926 0.827728L11.0806 -0.00643921L-1.19919 57.5829L2.71286 58.4171ZM81.082 10.9478V8.94775H79.4453L79.1216 10.5521L81.082 10.9478ZM78.3667 24.4028L76.4062 24.0072L75.9228 26.4028H78.3667V24.4028ZM92.1055 22.4575L93.2149 24.1216L93.2228 24.1163L93.2307 24.1109L92.1055 22.4575ZM92.9971 12.4473L91.7919 14.0434L91.7996 14.0492L91.8074 14.055L92.9971 12.4473ZM68.397 0.410645V-1.58936H66.7762L66.4404 -0.00380516L68.397 0.410645ZM105.601 4.01758L104.459 5.65967L104.468 5.66566L105.601 4.01758ZM94.9424 29.2661L94.7825 27.2725L88.7213 27.7587L93.8877 30.9654L94.9424 29.2661ZM98.5898 32.7109L96.9153 33.8045L96.9205 33.8125L96.9257 33.8203L98.5898 32.7109ZM100.657 38.4253L98.6972 38.8256L98.6997 38.8379L98.7024 38.8502L100.657 38.4253ZM104.912 58V60H107.394L106.866 57.5751L104.912 58ZM89.7954 58L87.8416 58.4275L88.1857 60H89.7954V58ZM85.7427 39.479L87.6964 39.0515L87.6935 39.038L87.6904 39.0245L85.7427 39.479ZM83.6353 36.0747L82.5469 37.7526L82.557 37.7592L82.5673 37.7657L83.6353 36.0747ZM76.0972 35.1021V33.1021H74.4745L74.1401 34.6899L76.0972 35.1021ZM71.2744 58V60H72.8971L73.2315 58.4122L71.2744 58ZM56.1982 58L54.2417 57.5855L53.7302 60H56.1982V58ZM79.1216 10.5521L76.4062 24.0072L80.3272 24.7985L83.0425 11.3434L79.1216 10.5521ZM78.3667 26.4028H83.8379V22.4028H78.3667V26.4028ZM83.8379 26.4028C87.6058 26.4028 90.8104 25.7246 93.2149 24.1216L90.9961 20.7934C89.5099 21.7842 87.2028 22.4028 83.8379 22.4028V26.4028ZM93.2307 24.1109C95.7301 22.41 97.0234 19.9365 97.0234 16.9053H93.0234C93.0234 18.6292 92.3715 19.8573 90.9802 20.8041L93.2307 24.1109ZM97.0234 16.9053C97.0234 14.4238 96.14 12.285 94.1868 10.8396L91.8074 14.055C92.5559 14.6089 93.0234 15.4421 93.0234 16.9053H97.0234ZM94.2023 10.8512C92.3816 9.47638 89.9009 8.94775 87.0801 8.94775V12.9478C89.5008 12.9478 90.9648 13.4188 91.7919 14.0434L94.2023 10.8512ZM87.0801 8.94775H81.082V12.9478H87.0801V8.94775ZM68.397 2.41064H90.1196V-1.58936H68.397V2.41064ZM90.1196 2.41064C96.8081 2.41064 101.487 3.59315 104.459 5.65965L106.743 2.37551C102.798 -0.367241 97.1564 -1.58936 90.1196 -1.58936V2.41064ZM104.468 5.66566C107.308 7.61831 108.789 10.5095 108.789 14.6763H112.789C112.789 9.38662 110.811 5.17206 106.734 2.36949L104.468 5.66566ZM108.789 14.6763C108.789 18.4407 107.588 21.2687 105.299 23.3779L108.01 26.3193C111.233 23.3491 112.789 19.3955 112.789 14.6763H108.789ZM105.299 23.3779C102.971 25.5233 99.5452 26.8905 94.7825 27.2725L95.1023 31.2597C100.444 30.8312 104.826 29.2534 108.01 26.3193L105.299 23.3779ZM93.8877 30.9654C95.2474 31.8094 96.2351 32.7629 96.9153 33.8045L100.264 31.6174C99.2155 30.0112 97.7715 28.6682 95.9971 27.5668L93.8877 30.9654ZM96.9257 33.8203C97.5838 34.8075 98.2065 36.4237 98.6972 38.8256L102.616 38.025C102.08 35.4015 101.325 33.2081 100.254 31.6015L96.9257 33.8203ZM98.7024 38.8502L102.958 58.4249L106.866 57.5751L102.611 38.0004L98.7024 38.8502ZM104.912 56H89.7954V60H104.912V56ZM91.7492 57.5725L87.6964 39.0515L83.7889 39.9065L87.8416 58.4275L91.7492 57.5725ZM87.6904 39.0245C87.2379 37.0854 86.318 35.4036 84.7032 34.3837L82.5673 37.7657C83.0059 38.0427 83.491 38.6304 83.795 39.9335L87.6904 39.0245ZM84.7236 34.3968C83.2269 33.4259 81.1504 33.1021 78.853 33.1021V37.1021C80.9326 37.1021 82.0443 37.4266 82.5469 37.7526L84.7236 34.3968ZM78.853 33.1021H76.0972V37.1021H78.853V33.1021ZM74.1401 34.6899L69.3174 57.5878L73.2315 58.4122L78.0542 35.5142L74.1401 34.6899ZM71.2744 56H56.1982V60H71.2744V56ZM58.1548 58.4145L70.3536 0.825094L66.4404 -0.00380516L54.2417 57.5855L58.1548 58.4145ZM148.398 11.6772L150.384 11.4411L149.649 5.25935L146.646 10.7125L148.398 11.6772ZM135.632 34.8589L133.88 33.8941L132.247 36.8589H135.632V34.8589ZM151.154 34.8589V36.8589H153.406L153.14 34.6228L151.154 34.8589ZM140.698 0.410645V-1.58936H139.557L138.976 -0.6071L140.698 0.410645ZM159.786 0.410645L161.761 0.0924416L161.49 -1.58936H159.786V0.410645ZM169.067 58V60H171.415L171.041 57.6818L169.067 58ZM153.788 58L151.803 58.2424L152.017 60H153.788V58ZM152.289 45.7202L154.274 45.4778L154.059 43.7202H152.289V45.7202ZM129.715 45.7202V43.7202H128.544L127.971 44.7416L129.715 45.7202ZM122.825 58V60H123.996L124.569 58.9786L122.825 58ZM106.655 58L104.933 56.9823L103.149 60H106.655V58ZM146.646 10.7125L133.88 33.8941L137.384 35.8237L150.15 12.642L146.646 10.7125ZM135.632 36.8589H151.154V32.8589H135.632V36.8589ZM153.14 34.6228L150.384 11.4411L146.412 11.9133L149.168 35.095L153.14 34.6228ZM140.698 2.41064H159.786V-1.58936H140.698V2.41064ZM157.812 0.728848L167.092 58.3182L171.041 57.6818L161.761 0.0924416L157.812 0.728848ZM169.067 56H153.788V60H169.067V56ZM155.773 57.7576L154.274 45.4778L150.303 45.9626L151.803 58.2424L155.773 57.7576ZM152.289 43.7202H129.715V47.7202H152.289V43.7202ZM127.971 44.7416L121.081 57.0214L124.569 58.9786L131.459 46.6988L127.971 44.7416ZM122.825 56H106.655V60H122.825V56ZM108.376 59.0177L142.419 1.42839L138.976 -0.6071L104.933 56.9823L108.376 59.0177ZM185.44 0.410645V-1.58936H183.821L183.484 -0.00643921L185.44 0.410645ZM204.366 0.410645L206.278 -0.175476L205.845 -1.58936H204.366V0.410645ZM213.323 29.6309L211.411 30.217L211.414 30.2274L213.323 29.6309ZM215.187 36.3179L213.239 36.7697L215.187 36.3179ZM216.119 41.6675L214.131 41.8883L214.329 43.6675H216.119V41.6675ZM216.808 41.6675V43.6675H218.677L218.804 41.8028L216.808 41.6675ZM218.794 29.5498L220.748 29.9772L220.751 29.9635L218.794 29.5498ZM224.954 0.410645V-1.58936H223.333L222.997 -0.00302124L224.954 0.410645ZM238.977 0.410645L240.933 0.827728L241.448 -1.58936H238.977V0.410645ZM226.697 58V60H228.315L228.653 58.4171L226.697 58ZM207.771 58L205.857 58.5824L206.289 60H207.771V58ZM197.963 25.7808L199.876 25.1983L199.873 25.1893L199.871 25.1802L197.963 25.7808ZM196.788 21.3228L194.83 21.7348L194.832 21.7418L196.788 21.3228ZM196.058 16.5L198.049 16.3074L197.874 14.5H196.058V16.5ZM195.45 16.5V14.5H193.69L193.466 16.2457L195.45 16.5ZM194.599 22.5386L196.575 22.8491L196.576 22.8448L194.599 22.5386ZM193.626 27.8882L195.583 28.3017L195.584 28.2986L193.626 27.8882ZM187.264 58V60H188.885L189.22 58.4135L187.264 58ZM173.16 58L171.204 57.5829L170.689 60H173.16V58ZM185.44 2.41064H204.366V-1.58936H185.44V2.41064ZM202.454 0.996765L211.411 30.217L215.235 29.0447L206.278 -0.175476L202.454 0.996765ZM211.414 30.2274C212.215 32.7914 212.821 34.9696 213.239 36.7697L217.135 35.8661C216.688 33.9376 216.052 31.6578 215.232 29.0343L211.414 30.2274ZM213.239 36.7697C213.655 38.5665 213.952 40.2723 214.131 41.8883L218.107 41.4466C217.908 39.6584 217.583 37.7978 217.135 35.8661L213.239 36.7697ZM216.119 43.6675H216.808V39.6675H216.119V43.6675ZM218.804 41.8028C218.906 40.2864 219.113 38.5826 219.429 36.6872L215.484 36.0296C215.151 38.0248 214.926 39.8604 214.813 41.5322L218.804 41.8028ZM219.429 36.6872C219.747 34.7839 220.185 32.5486 220.748 29.9772L216.84 29.1224C216.268 31.7385 215.815 34.0422 215.484 36.0296L219.429 36.6872ZM220.751 29.9635L226.911 0.82431L222.997 -0.00302124L216.837 29.1361L220.751 29.9635ZM224.954 2.41064H238.977V-1.58936H224.954V2.41064ZM237.021 -0.00643921L224.741 57.5829L228.653 58.4171L240.933 0.827728L237.021 -0.00643921ZM226.697 56H207.771V60H226.697V56ZM209.684 57.4176L199.876 25.1983L196.05 26.3632L205.857 58.5824L209.684 57.4176ZM199.871 25.1802C199.43 23.7816 199.054 22.3562 198.743 20.9037L194.832 21.7418C195.169 23.3153 195.577 24.8619 196.055 26.3813L199.871 25.1802ZM198.745 20.9107C198.437 19.4479 198.204 17.9138 198.049 16.3074L194.067 16.6926C194.236 18.4364 194.49 20.1175 194.831 21.7348L198.745 20.9107ZM196.058 14.5H195.45V18.5H196.058V14.5ZM193.466 16.2457C193.198 18.3374 192.917 20.3329 192.623 22.2324L196.576 22.8448C196.876 20.9077 197.162 18.8775 197.434 16.7543L193.466 16.2457ZM192.623 22.2281C192.331 24.0898 192.013 25.8394 191.669 27.4778L195.584 28.2986C195.943 26.5867 196.273 24.7699 196.575 22.849L192.623 22.2281ZM191.67 27.4747L185.307 57.5865L189.22 58.4135L195.583 28.3017L191.67 27.4747ZM187.264 56H173.16V60H187.264V56ZM175.116 58.4171L187.396 0.827728L183.484 -0.00643921L171.204 57.5829L175.116 58.4171ZM263.658 11.5151V9.51514H262.04L261.702 11.0973L263.658 11.5151ZM256.16 46.6118L254.204 46.194L253.688 48.6118H256.16V46.6118ZM271.196 45.4771L271.822 47.3767L271.835 47.3722L271.196 45.4771ZM277.234 41.7485L275.82 40.3343L277.234 41.7485ZM282.057 34.332L280.201 33.5863L280.198 33.5953L282.057 34.332ZM280.071 15.1626L278.673 16.5923L278.681 16.6001L280.071 15.1626ZM250.284 0.410645V-1.58936H248.663L248.327 -0.00380516L250.284 0.410645ZM296.89 39.6006L295.04 38.8415L295.037 38.8475L296.89 39.6006ZM289.636 49.9351L288.33 48.4202L288.32 48.4291L289.636 49.9351ZM278.329 56.0952L278.892 58.0142L278.903 58.0109L278.329 56.0952ZM238.085 58L236.128 57.5855L235.617 60H238.085V58ZM261.702 11.0973L254.204 46.194L258.116 47.0296L265.614 11.933L261.702 11.0973ZM256.16 48.6118H262.645V44.6118H256.16V48.6118ZM262.645 48.6118C266.182 48.6118 269.259 48.2207 271.822 47.3766L270.57 43.5775C268.539 44.2464 265.916 44.6118 262.645 44.6118V48.6118ZM271.835 47.3722C274.445 46.4921 276.724 45.087 278.649 43.1628L275.82 40.3343C274.34 41.8144 272.594 42.8949 270.557 43.5819L271.835 47.3722ZM278.649 43.1628C280.931 40.8802 282.686 38.1744 283.917 35.0688L280.198 33.5953C279.159 36.2176 277.698 38.456 275.82 40.3343L278.649 43.1628ZM283.913 35.0778C285.169 31.9526 285.8 28.7141 285.8 25.3755H281.8C281.8 28.197 281.269 30.9296 280.201 33.5863L283.913 35.0778ZM285.8 25.3755C285.8 20.5859 284.437 16.6029 281.462 13.7251L278.681 16.6001C280.677 18.5315 281.8 21.3571 281.8 25.3755H285.8ZM281.47 13.7329C278.503 10.8301 274.396 9.51514 269.453 9.51514V13.5151C273.697 13.5151 276.669 14.6318 278.673 16.5923L281.47 13.7329ZM269.453 9.51514H263.658V13.5151H269.453V9.51514ZM250.284 2.41064H269.453V-1.58936H250.284V2.41064ZM269.453 2.41064C279.365 2.41064 286.347 4.46794 290.775 8.21852L293.36 5.16624C287.899 0.541176 279.805 -1.58936 269.453 -1.58936V2.41064ZM290.775 8.21852C295.135 11.9118 297.484 17.6541 297.484 25.8618H301.484C301.484 16.8859 298.888 9.8486 293.36 5.16624L290.775 8.21852ZM297.484 25.8618C297.484 30.5681 296.662 34.8874 295.04 38.8415L298.74 40.3597C300.577 35.8841 301.484 31.0442 301.484 25.8618H297.484ZM295.037 38.8475C293.443 42.7693 291.202 45.9441 288.33 48.4202L290.942 51.4499C294.337 48.5224 296.933 44.8075 298.743 40.3537L295.037 38.8475ZM288.32 48.4291C285.332 51.0405 281.819 52.96 277.754 54.1796L278.903 58.0109C283.484 56.6367 287.509 54.4495 290.952 51.441L288.32 48.4291ZM277.765 54.1763C273.685 55.3747 268.5 56 262.158 56V60C268.731 60 274.326 59.3555 278.892 58.0141L277.765 54.1763ZM262.158 56H238.085V60H262.158V56ZM240.042 58.4145L252.24 0.825094L248.327 -0.00380516L236.128 57.5855L240.042 58.4145Z" fill="white"/>
</svg>
