<svg width="315" height="41" viewBox="0 0 315 41" fill="none" xmlns="http://www.w3.org/2000/svg">
<path d="M257.13 33.488L258.114 39.6563H271.806C273.89 39.6563 275.469 39.5947 276.675 39.5418C281.392 39.2334 284.381 36.7308 285.738 33.4616C286.315 32.0847 286.616 30.609 286.624 29.1173C286.624 24.1738 284.159 21.1337 279.087 19.6181C280.412 19.3035 281.623 18.6257 282.581 17.6618C283.414 16.827 284.071 15.8347 284.513 14.7435C284.955 13.6524 285.172 12.4844 285.152 11.3085C285.152 10.1964 284.945 9.0939 284.54 8.05688C284.007 6.69525 283.145 5.48478 282.031 4.53212C280.334 3.0273 278.181 2.12797 275.912 1.97664H257.156L258.114 8.0128H259.888V33.4175L257.13 33.488ZM276.009 32.6068C274.95 33.2638 273.709 33.5721 272.462 33.488H267.461V23.275H272.205C273.204 23.198 274.209 23.3086 275.167 23.6011C276.044 24.0043 276.778 24.6603 277.275 25.4838C277.771 26.3072 278.007 27.2601 277.952 28.2185C277.972 29.0493 277.808 29.8744 277.473 30.6357C277.137 31.3969 276.638 32.0758 276.009 32.6245V32.6068ZM267.372 8.33004H271.806C272.884 8.26707 273.963 8.43226 274.972 8.81469C275.645 9.19846 276.202 9.75349 276.587 10.4226C276.972 11.0917 277.171 11.8507 277.162 12.6214C277.162 14.1371 276.276 15.9964 275.203 16.5339C274.529 16.9128 273.722 17.0186 271.921 17.0186H267.372V8.33004ZM93.7222 39.7092V2.04715H102.253L109.48 17.0274C111.143 20.4859 112.531 24.0686 113.631 27.7427C113.356 24.8171 113.09 19.9794 113.028 17.371L112.93 8.13618H110.713L111.68 2.04715H120.14V39.7092H112.158L105.649 25.2313C103.566 20.5081 101.216 15.1769 100.506 12.8417C100.781 15.9347 100.834 20.3935 100.887 23.5482L101.02 33.488H103.033L102.049 39.6563H93.7222V39.7092ZM50.864 39.7092V2.04715H71.4906L70.9407 5.92439L70.5772 8.18905H58.5346V16.8247H69.1761L68.1917 22.993H58.5346V33.4792H60.7605L59.7761 39.6475H50.9083L50.864 39.7092ZM73.8671 8.13618L72.9006 2.04715H91.6738L90.7072 8.13618H86.2112V33.5057H90.7072L91.6826 39.674H72.8828L73.8671 33.5057H78.2213V8.13618H73.8671ZM21.7775 39.7092V2.04715H30.2729L37.5001 17.0274C39.1623 20.4802 40.5499 24.057 41.6503 27.725C41.3842 24.7995 41.1005 19.9617 41.0562 17.3534L40.9497 8.11854H38.653L39.6284 2.02954H48.1593V39.6916H40.1782L33.6958 25.2313C31.6208 20.5081 29.2619 15.1769 28.5614 12.8417C28.8363 15.9347 28.8895 20.3935 28.9427 23.5482L29.0757 33.488H31.2838L30.2906 39.6563H21.7775V39.7092ZM19.7113 39.7092H0.902588L1.8869 33.5409H6.24102V8.13618H1.89578L0.92919 2.04715H19.7024L18.7447 8.13618H14.2487V33.5057H18.7447L19.7113 39.7092ZM314.452 27.7867C314.452 35.4443 308.244 40.4935 298.755 40.4935C294.22 40.4454 289.769 39.27 285.808 37.0745L288.646 31.1617C292.193 33.0034 295.262 34.193 299.084 34.193C303.455 34.193 305.743 32.4306 305.743 29.038C305.743 26.5883 304.174 25.0198 300.777 24.1474L296.565 23.0019C292.796 21.9797 290.446 20.5081 289.081 18.2346C288.028 16.4991 287.481 14.5068 287.502 12.4804C287.502 5.58072 293.071 0.804673 301.097 0.804673C305.611 0.762812 310.031 2.08751 313.769 4.6026L310.177 10.0307C306.728 7.96875 304.174 7.15805 301.309 7.15805C298.179 7.15805 295.989 8.92044 295.989 11.4935C295.989 13.4498 297.026 14.4279 300.21 15.2914L304.794 16.5515C311.037 18.2346 314.452 22.1912 314.452 27.7867ZM232.867 8.13618H234.517L224.141 39.6828H232.123L234.783 30.7211H245.939L248.599 39.6828H256.784L244.883 2.04715H231.945L232.867 8.13618ZM238.676 17.4151C239.385 14.5865 240.449 10.1365 240.449 10.1365C240.449 10.1365 241.611 15.08 241.984 16.8159C242.799 20.4552 244.068 24.4206 244.068 24.4206H236.627C237.514 21.918 238.002 20.1292 238.72 17.4151H238.676ZM203.196 2.04715H211.008V33.3823H224.549L222.634 39.1805L222.474 39.6828H203.196V2.04715ZM172.921 2.04715H194.558L193.592 8.13618H180.547V16.8776H191.437V23.0459H180.654V33.4792H193.565L194.55 39.6475H171.857L170.872 33.4792H172.894L172.921 2.04715ZM123.261 8.32122L122.286 2.2322H141.059L140.092 8.32122H135.596V33.6995H140.092L141.076 39.8678H122.268L123.261 33.6995H127.615V8.32122H123.261ZM142.726 2.2322H171.174L169.941 8.40053H160.861V33.6731H162.971L161.987 39.8414H153.119V8.42696H144.632L142.726 2.2322Z" fill="#FFA400"/>
</svg>
