<svg width="90" height="78" viewBox="0 0 90 78" fill="none" xmlns="http://www.w3.org/2000/svg">
<g clip-path="url(#clip0_1_320)">
<path d="M0 45.3488C0 20.3034 20.3507 0 45.4545 0H85.4546C87.9649 0 90 2.03034 90 4.53488V32.6512C90 57.6966 69.6493 78 44.5455 78H4.54545C2.03507 78 0 75.9696 0 73.4651V45.3488Z" fill="white"/>
<mask id="mask0_1_320" style="mask-type:alpha" maskUnits="userSpaceOnUse" x="29" y="24" width="31" height="30">
<path d="M44.4218 53.5116C52.523 53.5116 59.0904 46.9595 59.0904 38.8772C59.0904 30.7948 52.523 24.2427 44.4218 24.2427C36.3205 24.2427 29.7532 30.7948 29.7532 38.8772C29.7532 46.9595 36.3205 53.5116 44.4218 53.5116Z" fill="#4CA585"/>
</mask>
<g mask="url(#mask0_1_320)">
<mask id="mask1_1_320" style="mask-type:alpha" maskUnits="userSpaceOnUse" x="22" y="16" width="44" height="46">
<path fill-rule="evenodd" clip-rule="evenodd" d="M48.4747 16.7971H40.7382V35.1287H22.3651V42.8473H40.7382V61.1791H48.4747V42.8473H65.8835V35.1287H48.4747V16.7971Z" fill="white"/>
</mask>
<g mask="url(#mask1_1_320)">
<path fill-rule="evenodd" clip-rule="evenodd" d="M48.4747 16.7971H40.7382V35.1287H22.3651V42.8473H40.7382V61.1791H48.4747V42.8473H65.8835V35.1287H48.4747V16.7971Z" fill="#FFA12D"/>
<path d="M40.7382 16.7972V15.4368H39.3746V16.7972H40.7382ZM48.4747 16.7972H49.8384V15.4368H48.4747V16.7972ZM40.7382 35.1289V36.4893H42.1018V35.1289H40.7382ZM22.3651 35.1289V33.7684H21.0015V35.1289H22.3651ZM22.3651 42.8474H21.0015V44.2079H22.3651V42.8474ZM40.7382 42.8474H42.1018V41.487H40.7382V42.8474ZM40.7382 61.1792H39.3746V62.5397H40.7382V61.1792ZM48.4747 61.1792V62.5397H49.8384V61.1792H48.4747ZM48.4747 42.8474V41.487H47.1111V42.8474H48.4747ZM65.8835 42.8474V44.2079H67.2471V42.8474H65.8835ZM65.8835 35.1289H67.2471V33.7684H65.8835V35.1289ZM48.4747 35.1289H47.1111V36.4893H48.4747V35.1289ZM40.7382 18.1577H48.4747V15.4368H40.7382V18.1577ZM42.1018 35.1289V16.7972H39.3746V35.1289H42.1018ZM22.3651 36.4893H40.7382V33.7684H22.3651V36.4893ZM23.7287 42.8474V35.1289H21.0015V42.8474H23.7287ZM40.7382 41.487H22.3651V44.2079H40.7382V41.487ZM42.1018 61.1792V42.8474H39.3746V61.1792H42.1018ZM48.4747 59.8188H40.7382V62.5397H48.4747V59.8188ZM47.1111 42.8474V61.1792H49.8384V42.8474H47.1111ZM65.8835 41.487H48.4747V44.2079H65.8835V41.487ZM64.5198 35.1289V42.8474H67.2471V35.1289H64.5198ZM48.4747 36.4893H65.8835V33.7684H48.4747V36.4893ZM47.1111 16.7972V35.1289H49.8384V16.7972H47.1111Z" fill="#111C4E"/>
</g>
<path d="M41.3648 35.8261L34.0803 28.5337" stroke="#111C4E" stroke-width="1.5" stroke-miterlimit="10"/>
<path d="M47.7273 42.1743L54.7916 49.2201" stroke="#111C4E" stroke-width="1.5" stroke-miterlimit="10"/>
<path d="M41.3636 42.1743L34.0554 49.2201" stroke="#111C4E" stroke-width="1.5" stroke-miterlimit="10"/>
<path d="M47.7273 35.8256L54.7916 28.5337" stroke="#111C4E" stroke-width="1.5" stroke-miterlimit="10"/>
<path d="M44.4218 53.5116C52.523 53.5116 59.0904 46.9595 59.0904 38.8772C59.0904 30.7948 52.523 24.2427 44.4218 24.2427C36.3205 24.2427 29.7532 30.7948 29.7532 38.8772C29.7532 46.9595 36.3205 53.5116 44.4218 53.5116Z" stroke="#111C4E" stroke-width="1.5" stroke-miterlimit="10"/>
</g>
</g>
<defs>
<clipPath id="clip0_1_320">
<rect width="90" height="78" fill="white"/>
</clipPath>
</defs>
</svg>
