<svg width="90" height="78" viewBox="0 0 90 78" fill="none" xmlns="http://www.w3.org/2000/svg">
<g clip-path="url(#clip0_1_339)">
<path d="M0 45.3488C0 20.3034 20.3507 0 45.4545 0H85.4546C87.9649 0 90 2.03034 90 4.53488V32.6512C90 57.6966 69.6493 78 44.5455 78H4.54545C2.03507 78 0 75.9696 0 73.4651V45.3488Z" fill="white"/>
<path fill-rule="evenodd" clip-rule="evenodd" d="M53.8882 32.8025L44.512 27.4019L40.8279 29.5239L49.8776 34.809C49.8951 34.8192 49.912 34.8301 49.9282 34.8417L53.8882 32.8025ZM48.5723 35.5399L39.5406 30.2654L35.136 32.8024L44.5122 37.6306L48.5723 35.5399ZM34.4443 33.8964V44.7991L43.8664 50.2264V38.7482L34.4443 33.8964ZM45.158 50.2261L54.5797 44.7991V33.8966L45.158 38.7482V50.2261Z" fill="#FFA12D"/>
<path d="M27.1218 40.2888C27.7828 49.2952 35.3164 56.3974 44.5126 56.3974C53.3772 56.3974 60.6969 49.7982 61.8053 41.2552M61.9033 37.7114C61.2424 28.7049 53.7087 21.6028 44.5126 21.6028C35.6479 21.6028 28.3282 28.2019 27.2198 36.7449" stroke="#111C4E" stroke-width="1.5" stroke-linecap="round"/>
<path d="M24.5206 34.2476L27.0034 37.5812L30.3448 35.1041" stroke="#003E52" stroke-width="1.5" stroke-linecap="round" stroke-linejoin="round"/>
<path d="M64.5455 43.6224L62.0626 40.2888L58.7213 42.766" stroke="#003E52" stroke-width="1.5" stroke-linecap="round" stroke-linejoin="round"/>
</g>
<defs>
<clipPath id="clip0_1_339">
<rect width="90" height="78" fill="white"/>
</clipPath>
</defs>
</svg>
