<svg width="87" height="76" viewBox="0 0 87 76" fill="none" xmlns="http://www.w3.org/2000/svg">
<g clip-path="url(#clip0_1_334)">
<path d="M0 44.186C0 19.7828 19.6724 0 43.9394 0H82.6061C85.0327 0 87 1.97828 87 4.4186V31.814C87 56.2172 67.3276 76 43.0606 76H4.39394C1.96724 76 0 74.0217 0 71.5814V44.186Z" fill="white"/>
<path d="M33.2578 50.9963C33.4151 51.2677 33.6398 51.4921 33.9093 51.6466C34.1787 51.8012 34.4833 51.8806 34.7924 51.8767L51.352 51.7992C51.6603 51.7976 51.9629 51.7143 52.2302 51.5575C52.4976 51.4007 52.7203 51.1758 52.8768 50.9047C53.0332 50.6336 53.118 50.3257 53.1226 50.0112C53.1274 49.6967 53.052 49.3862 52.9037 49.1104L49.2756 42.5449C48.9402 43.0781 48.4795 43.5171 47.9352 43.8222C47.391 44.1271 46.7807 44.2883 46.1597 44.2911C45.5389 44.2938 44.9272 44.138 44.3804 43.8378C43.8336 43.5376 43.3692 43.1026 43.0292 42.5725C42.6944 43.1058 42.2341 43.545 41.6901 43.8503C41.1463 44.1555 40.5361 44.317 39.9153 44.32C39.2947 44.323 38.683 44.1673 38.1363 43.8674C37.5896 43.5674 37.1252 43.1325 36.7855 42.6025L33.2162 49.203C33.0682 49.4792 32.9941 49.7905 33.0014 50.1053C33.0087 50.4201 33.0971 50.7274 33.2578 50.9963Z" fill="#FFA12D"/>
<path d="M54.6537 48.1298L46.2868 32.5803L46.2525 24.5542H46.2991C46.4575 24.5531 46.6142 24.5204 46.7601 24.4577C46.9061 24.3949 47.0385 24.3034 47.1498 24.1884C47.2611 24.0735 47.3492 23.9373 47.4089 23.7876C47.4686 23.638 47.4988 23.4777 47.4979 23.3161C47.4973 23.1547 47.4654 22.9949 47.4041 22.846C47.3429 22.6971 47.2535 22.5619 47.141 22.4483C47.0285 22.3347 46.8951 22.2449 46.7486 22.1839C46.602 22.1229 46.4451 22.0921 46.2868 22.093L39.5895 22.1231C39.4311 22.1237 39.2744 22.1562 39.1283 22.2187C38.9822 22.2811 38.8496 22.3723 38.738 22.487C38.6265 22.6018 38.5382 22.7378 38.4782 22.8873C38.4182 23.0369 38.3877 23.1971 38.3883 23.3586C38.3889 23.5202 38.4207 23.6801 38.482 23.8292C38.5431 23.9782 38.6326 24.1135 38.745 24.2273C38.8575 24.3411 38.9908 24.4312 39.1374 24.4924C39.2839 24.5537 39.4409 24.5849 39.5992 24.5842H39.6458L39.6826 32.6129L31.458 48.2374C31.1482 48.8256 30.9935 49.4858 31.0093 50.1534C31.025 50.821 31.2106 51.473 31.5478 52.0453C31.8851 52.6176 32.3623 53.0906 32.9328 53.4179C33.5032 53.7453 34.1473 53.9157 34.8018 53.9125L51.3614 53.8349C52.0157 53.8319 52.658 53.6554 53.2253 53.3228C53.7926 52.9901 54.2654 52.5127 54.5974 51.9375C54.9294 51.3622 55.1091 50.7087 55.119 50.0412C55.1289 49.3738 54.9685 48.715 54.6537 48.1298Z" stroke="#111C4E" stroke-width="1.5" stroke-linejoin="round"/>
<path d="M39.6467 24.5868L42.005 24.5742" stroke="#111C4E" stroke-width="1.5" stroke-linecap="round" stroke-linejoin="round"/>
</g>
<defs>
<clipPath id="clip0_1_334">
<rect width="87" height="76" fill="white"/>
</clipPath>
</defs>
</svg>
