<svg width="19" height="18" viewBox="0 0 19 18" fill="none" xmlns="http://www.w3.org/2000/svg">
<path fill-rule="evenodd" clip-rule="evenodd" d="M9.75112 0.559814C7.35174 0.559814 7.05293 0.569891 6.10937 0.613078C2.90039 0.757034 1.11926 2.49746 0.97206 5.63571C0.929371 6.55847 0.919067 6.85214 0.919067 9.19718C0.919067 11.5437 0.929371 11.8373 0.97206 12.7587C1.11926 15.8955 2.90039 17.6388 6.10937 17.7827C7.05293 17.8245 7.35174 17.8345 9.75112 17.8345C12.1505 17.8345 12.4508 17.8245 13.3943 17.7827C16.5974 17.6388 18.3859 15.8983 18.5302 12.7587C18.5729 11.8373 18.5832 11.5437 18.5832 9.19718C18.5832 6.85214 18.5729 6.55847 18.5302 5.63571C18.3859 2.50178 16.6033 0.755595 13.3943 0.613078C12.4508 0.569891 12.1505 0.559814 9.75112 0.559814ZM9.75063 2.1181C12.1088 2.1181 12.3885 2.12674 13.3202 2.16849C15.7152 2.27501 16.831 3.38492 16.9414 5.70837C16.9826 6.61961 16.9914 6.89169 16.9914 9.19786C16.9914 11.504 16.9826 11.7776 16.9414 12.6874C16.831 15.0094 15.7167 16.1221 13.3202 16.2287C12.3885 16.269 12.1103 16.2791 9.75063 16.2791C7.39247 16.2791 7.11279 16.2704 6.18248 16.2287C3.78311 16.1207 2.67174 15.0065 2.56134 12.6874C2.52012 11.7776 2.50982 11.504 2.50982 9.19786C2.50982 6.89169 2.52012 6.61817 2.56134 5.70837C2.67027 3.38348 3.78605 2.27357 6.18248 2.16705C7.11279 2.1253 7.39247 2.1181 9.75063 2.1181ZM5.21585 9.19848C5.21585 6.74835 7.24722 4.76319 9.7511 4.76319C12.255 4.76319 14.2864 6.74979 14.2864 9.19848C14.2864 11.6486 12.255 13.6338 9.7511 13.6338C7.24722 13.6338 5.21585 11.6486 5.21585 9.19848ZM9.75061 12.0757C8.12404 12.0757 6.8066 10.7873 6.8066 9.19661C6.8066 7.60733 8.12404 6.31749 9.75061 6.31749C11.3757 6.31749 12.6961 7.60589 12.6961 9.19661C12.6961 10.7873 11.3757 12.0757 9.75061 12.0757ZM13.4043 4.58701C13.4043 4.01407 13.8798 3.55053 14.4642 3.55053C15.0515 3.55053 15.5255 4.01407 15.5255 4.58701C15.5255 5.15996 15.0501 5.6235 14.4642 5.6235C13.8783 5.6235 13.4043 5.15852 13.4043 4.58701Z" fill="#FFA400"/>
</svg>
