<svg width="25" height="19" viewBox="0 0 25 19" fill="none" xmlns="http://www.w3.org/2000/svg">
<path d="M24.1705 2.38363C23.5033 3.30001 22.6846 4.08118 21.7146 4.72714C21.7242 4.90039 21.729 5.09619 21.729 5.31457C21.729 6.52791 21.5374 7.74271 21.1542 8.95898C20.771 10.1753 20.1857 11.3395 19.3982 12.4516C18.6108 13.5637 17.6728 14.5489 16.5842 15.4073C15.4956 16.2656 14.1871 16.95 12.6587 17.4605C11.1302 17.9709 9.49212 18.2262 7.7444 18.2262C5.01678 18.2262 2.50492 17.5463 0.208801 16.1866C0.616334 16.2284 1.00719 16.2494 1.38138 16.2494C3.66008 16.2494 5.69532 15.6013 7.48711 14.3053C6.42466 14.2873 5.47314 13.9853 4.63258 13.3994C3.79201 12.8134 3.21356 12.0647 2.89721 11.1532C3.2099 11.2082 3.51851 11.2357 3.82305 11.2357C4.26142 11.2357 4.69276 11.1829 5.11709 11.0773C3.98325 10.8676 3.04263 10.3462 2.29523 9.51309C1.54786 8.67995 1.17418 7.71835 1.17418 6.62829V6.57211C1.87014 6.92789 2.61248 7.11714 3.40122 7.13986C2.72954 6.72642 2.197 6.18729 1.8036 5.52246C1.41017 4.85763 1.21346 4.13817 1.21346 3.36408C1.21346 2.54766 1.43503 1.78743 1.87819 1.08338C3.11122 2.48043 4.6053 3.59699 6.36042 4.43308C8.11556 5.26917 9.9985 5.73352 12.0092 5.8261C11.9235 5.49612 11.8805 5.15176 11.8804 4.79303C11.8804 3.54048 12.3604 2.47098 13.3206 1.58454C14.2808 0.698102 15.4392 0.254883 16.7958 0.254883C18.2161 0.254883 19.4125 0.732386 20.3849 1.68739C21.4959 1.48421 22.5362 1.1167 23.5057 0.584871C23.1322 1.67022 22.4124 2.50749 21.3464 3.09668C22.3262 2.98919 23.2675 2.75151 24.1705 2.38363H24.1705Z" fill="#FFA400"/>
</svg>
