<svg width="301" height="39" viewBox="0 0 301 39" fill="none" xmlns="http://www.w3.org/2000/svg">
<g clip-path="url(#clip0_1_43)">
<path d="M298.747 8.97559C299.135 8.97713 299.517 9.07541 299.857 9.26135C300.212 9.45062 300.504 9.73699 300.698 10.0862C300.897 10.4255 301.001 10.811 301 11.2032C301.001 11.5934 300.897 11.9767 300.698 12.3138C300.505 12.6595 300.218 12.9451 299.87 13.1386C299.528 13.3304 299.141 13.4313 298.747 13.4313C298.353 13.4313 297.966 13.3304 297.624 13.1386C297.275 12.9434 296.987 12.6583 296.789 12.3138C296.596 11.9751 296.494 11.5924 296.494 11.2032C296.493 10.811 296.597 10.4255 296.796 10.0862C296.99 9.73699 297.282 9.45062 297.637 9.26135C297.977 9.07541 298.358 8.97713 298.747 8.97559ZM298.747 9.41071C298.436 9.41128 298.13 9.49186 297.86 9.64453C297.583 9.79399 297.354 10.0195 297.203 10.294C297.044 10.5686 296.96 10.8799 296.96 11.1967C296.961 11.5105 297.042 11.819 297.197 12.093C297.355 12.362 297.581 12.5858 297.854 12.7424C298.129 12.8955 298.44 12.9759 298.757 12.9759C299.073 12.9759 299.384 12.8955 299.66 12.7424C299.932 12.5858 300.158 12.362 300.317 12.093C300.471 11.819 300.553 11.5105 300.553 11.1967C300.554 10.8799 300.47 10.5686 300.31 10.294C300.159 10.0195 299.931 9.79399 299.653 9.64453C299.377 9.48885 299.065 9.40817 298.747 9.41071ZM297.729 12.3982V10.0342H299.01C299.14 10.0412 299.267 10.0743 299.384 10.1316C299.479 10.1851 299.556 10.2639 299.607 10.3589C299.669 10.4611 299.701 10.5779 299.699 10.6966C299.701 10.8598 299.64 11.0175 299.529 11.1383C299.402 11.2647 299.235 11.343 299.056 11.3591C299.117 11.3798 299.175 11.4105 299.226 11.45C299.284 11.506 299.337 11.5668 299.384 11.6319C299.449 11.7235 299.508 11.8189 299.561 11.9176L299.844 12.3982H299.246L299.042 12.015C298.966 11.8314 298.852 11.6656 298.707 11.528C298.612 11.4544 298.493 11.4174 298.373 11.424H298.248V12.3982H297.729ZM298.215 11.0538H298.412C298.586 11.0609 298.759 11.05 298.931 11.0214C298.997 11.0044 299.055 10.9654 299.095 10.911C299.133 10.8578 299.154 10.7943 299.154 10.7291C299.157 10.6655 299.136 10.6031 299.095 10.5538C299.054 10.4993 298.996 10.4585 298.931 10.4369C298.759 10.4085 298.586 10.3976 298.412 10.4044H298.215V11.0538Z" fill="#111C4E"/>
<path d="M253.567 29.2647L254.296 33.8109H264.438C265.982 33.8109 267.151 33.7654 268.045 33.7264C271.539 33.4991 273.753 31.6547 274.758 29.2452C275.186 28.2304 275.409 27.1427 275.415 26.0434C275.415 22.3999 273.589 20.1593 269.831 19.0422C270.813 18.8103 271.71 18.3108 272.419 17.6004C273.037 16.9851 273.524 16.2538 273.851 15.4495C274.178 14.6453 274.339 13.7845 274.324 12.9178C274.324 12.0982 274.17 11.2856 273.871 10.5213C273.476 9.51774 272.838 8.6256 272.012 7.92346C270.755 6.81437 269.16 6.15155 267.48 6.04002H253.587L254.296 10.4888H255.61V29.2127L253.567 29.2647ZM267.552 28.6152C266.767 29.0994 265.848 29.3266 264.924 29.2647H261.22V21.7374H264.734C265.474 21.6807 266.218 21.7622 266.928 21.9777C267.577 22.275 268.121 22.7584 268.489 23.3654C268.857 23.9723 269.032 24.6746 268.99 25.3809C269.005 25.9933 268.884 26.6014 268.636 27.1624C268.387 27.7235 268.017 28.2238 267.552 28.6282V28.6152ZM261.154 10.7226H264.438C265.237 10.6762 266.036 10.798 266.783 11.0798C267.282 11.3627 267.695 11.7717 267.98 12.2649C268.265 12.758 268.412 13.3175 268.406 13.8855C268.406 15.0026 267.749 16.3729 266.954 16.7691C266.455 17.0484 265.857 17.1263 264.524 17.1263H261.154V10.7226ZM132.525 33.8498V6.09199H138.844L144.197 17.1328C145.429 19.6818 146.457 22.3224 147.271 25.0302C147.068 22.874 146.871 19.3085 146.825 17.3861L146.753 10.5797H145.11L145.826 6.09199H152.093V33.8498H146.181L141.36 23.1792C139.816 19.6981 138.075 15.7689 137.55 14.0479C137.753 16.3275 137.793 19.6137 137.832 21.9388L137.931 29.2647H139.422L138.693 33.8109H132.525V33.8498ZM100.778 33.8498V6.09199H116.057L115.649 8.9496L115.38 10.6187H106.46V16.9834H114.342L113.613 21.5296H106.46V29.2582H108.109L107.379 33.8044H100.811L100.778 33.8498ZM117.817 10.5797L117.101 6.09199H131.007L130.291 10.5797H126.961V29.2777H130.291L131.014 33.8239H117.088L117.817 29.2777H121.042V10.5797H117.817ZM79.2323 33.8498V6.09199H85.5252L90.8787 17.1328C92.11 19.6776 93.1378 22.3138 93.9529 25.0172C93.7558 22.861 93.5456 19.2955 93.5128 17.3731L93.434 10.5667H91.7327L92.4552 6.079H98.7744V33.8369H92.8625L88.0607 23.1792C86.5236 19.6981 84.7763 15.7689 84.2574 14.0479C84.461 16.3275 84.5005 19.6137 84.5399 21.9388L84.6384 29.2647H86.274L85.5383 33.8109H79.2323V33.8498ZM77.7018 33.8498H63.7695L64.4986 29.3036H67.7239V10.5797H64.5052L63.7892 6.09199H77.6952L76.9858 10.5797H73.6554V29.2777H76.9858L77.7018 33.8498ZM296.027 25.0627C296.027 30.7065 291.429 34.4279 284.401 34.4279C281.041 34.3925 277.744 33.5262 274.81 31.908L276.912 27.5501C279.54 28.9075 281.813 29.7843 284.644 29.7843C287.882 29.7843 289.577 28.4853 289.577 25.9849C289.577 24.1794 288.414 23.0234 285.898 22.3804L282.778 21.5361C279.987 20.7827 278.246 19.6981 277.234 18.0225C276.454 16.7434 276.049 15.2751 276.065 13.7816C276.065 8.69631 280.19 5.17625 286.135 5.17625C289.479 5.14539 292.753 6.12173 295.522 7.97541L292.861 11.9761C290.306 10.4563 288.414 9.85884 286.293 9.85884C283.974 9.85884 282.351 11.1578 282.351 13.0542C282.351 14.496 283.12 15.2169 285.478 15.8534L288.874 16.7821C293.498 18.0225 296.027 20.9386 296.027 25.0627ZM235.595 10.5797H236.817L229.131 33.8304H235.043L237.014 27.2254H245.277L247.248 33.8304H253.311L244.496 6.09199H234.912L235.595 10.5797ZM239.897 17.4185C240.423 15.3338 241.211 12.054 241.211 12.054C241.211 12.054 242.072 15.6975 242.348 16.9769C242.952 19.6592 243.891 22.5817 243.891 22.5817H238.38C239.037 20.7373 239.398 19.4189 239.93 17.4185H239.897ZM213.616 6.09199H219.403V29.1867H229.433L228.015 33.4602L227.896 33.8304H213.616V6.09199ZM191.19 6.09199H207.218L206.502 10.5797H196.839V17.0224H204.906V21.5686H196.918V29.2582H206.482L207.211 33.8044H190.402L189.673 29.2582H191.17L191.19 6.09199ZM154.405 10.7161L153.683 6.22837H167.589L166.873 10.7161H163.542V29.4205H166.873L167.602 33.9667H153.669L154.405 29.4205H157.63V10.7161H154.405ZM168.824 6.22837H189.896L188.983 10.7746H182.257V29.4011H183.82L183.091 33.9473H176.522V10.7941H170.236L168.824 6.22837Z" fill="#111C4E"/>
<path d="M26.5115 5.03978C33.2248 4.46176 39.1957 9.99515 39.8526 17.3795C40.5095 24.7638 34.9983 32.6872 28.8828 31.8429C40.1285 33.3886 49.7911 24.6989 55.1118 14.8011C52.7537 5.79965 40.2927 -1.1041 26.0779 0.123373C10.8056 1.42229 -0.853946 10.716 0.0459731 20.8281C0.111998 21.5188 0.235023 22.203 0.413822 22.8739C5.74108 12.9827 15.2001 6.02046 26.5115 5.03978Z" fill="#111C4E"/>
<path d="M29.4149 33.9408C22.7016 34.5188 16.7306 28.992 16.0738 21.6011C15.4169 14.2103 20.2646 6.42326 26.9976 6.15698C14.7469 6.63758 6.27318 15.0805 0.945923 24.9913C3.30411 33.9863 15.6337 40.0847 29.8484 38.8572C45.1208 37.5583 56.7803 28.2646 55.8804 18.1525C55.8186 17.4607 55.6932 16.776 55.506 16.1067C50.1853 25.9979 40.7263 32.9601 29.4149 33.9408Z" fill="url(#paint0_linear_1_43)"/>
</g>
<defs>
<linearGradient id="paint0_linear_1_43" x1="0.945923" y1="22.5688" x2="55.933" y2="22.5688" gradientUnits="userSpaceOnUse">
<stop offset="0.28" stop-color="#FFA400"/>
<stop offset="0.4" stop-color="#FFB400"/>
<stop offset="0.61" stop-color="#FFC900"/>
<stop offset="0.81" stop-color="#FFD600"/>
<stop offset="1" stop-color="#FFDA00"/>
</linearGradient>
<clipPath id="clip0_1_43">
<rect width="301" height="39" fill="white"/>
</clipPath>
</defs>
</svg>
