<svg width="31" height="31" viewBox="0 0 31 31" fill="none" xmlns="http://www.w3.org/2000/svg">
<path d="M28.0382 26.2117L23.2823 21.4558C25.1424 19.1288 26.0408 16.1779 25.793 13.2092C25.5452 10.2404 24.17 7.47928 21.9498 5.4929C19.7297 3.50653 16.8331 2.44573 13.8552 2.52842C10.8773 2.61111 8.04409 3.831 5.93758 5.93752C3.83106 8.04403 2.61117 10.8772 2.52848 13.8551C2.44579 16.8331 3.50659 19.7296 5.49297 21.9498C7.47934 24.1699 10.2405 25.5451 13.2092 25.793C16.178 26.0408 19.1289 25.1423 21.4559 23.2822L26.2118 28.0381L28.0382 26.2117ZM14.2083 23.2499C12.42 23.2499 10.6719 22.7196 9.18504 21.7261C7.69814 20.7326 6.53925 19.3205 5.85491 17.6684C5.17057 16.0162 4.99151 14.1982 5.34039 12.4443C5.68926 10.6904 6.5504 9.07933 7.8149 7.81483C9.0794 6.55033 10.6905 5.6892 12.4444 5.34033C14.1983 4.99145 16.0163 5.17051 17.6684 5.85485C19.3206 6.53919 20.7327 7.69808 21.7262 9.18498C22.7197 10.6719 23.25 12.42 23.25 14.2083C23.2472 16.6054 22.2938 18.9036 20.5987 20.5987C18.9037 22.2937 16.6055 23.2472 14.2083 23.2499Z" fill="#111C4E"/>
</svg>
